<svg xmlns="http://www.w3.org/2000/svg" xmlns:xlink="http://www.w3.org/1999/xlink" width="155" height="120" viewBox="0 0 155 120">
    <defs>
        <path id="a" d="M76.282 51.93V1.051H0v50.877z"/>
        <path id="c" d="M0 80.953h76.282V1H0z"/>
    </defs>
    <g fill="none" fill-rule="evenodd" transform="translate(20 19)">
        <g transform="translate(0 29.023)">
            <mask id="b" fill="#fff">
                <use xlink:href="#a"/>
            </mask>
            <path fill="#333" d="M73.483 1.052H2.8A2.804 2.804 0 0 0 0 3.859v45.263a2.803 2.803 0 0 0 2.8 2.807h70.683c1.546 0 2.8-1.256 2.8-2.807V3.86a2.805 2.805 0 0 0-2.8-2.807zM2.8 49.122h70.683V3.86H2.8v45.263z" mask="url(#b)"/>
        </g>
        <path fill="#333" d="M74.716 44.18H1.566a1.4 1.4 0 0 1-1.4-1.403 1.4 1.4 0 0 1 1.4-1.404h73.15a1.4 1.4 0 0 1 1.4 1.404 1.4 1.4 0 0 1-1.4 1.403M39.26 38.45h-2.238c-.773 0-1.4-.628-1.4-1.404 0-.776.627-1.403 1.4-1.403h2.238a1.4 1.4 0 0 1 1.4 1.403 1.4 1.4 0 0 1-1.4 1.404"/>
        <path fill="#333" d="M39.26 38.45h-2.238c-.773 0-1.4-.628-1.4-1.404 0-.776.627-1.403 1.4-1.403h2.238a1.4 1.4 0 0 1 1.4 1.403 1.4 1.4 0 0 1-1.4 1.404"/>
        <path fill="#333" d="M39.26 38.45h-2.238c-.773 0-1.4-.628-1.4-1.404 0-.776.627-1.403 1.4-1.403h2.238a1.4 1.4 0 0 1 1.4 1.403 1.4 1.4 0 0 1-1.4 1.404"/>
        <mask id="d" fill="#fff">
            <use xlink:href="#c"/>
        </mask>
        <path fill="#333" d="M8.417 68.642h16.101V52.498H8.417v16.144zm2.52-2.528h11.061V55.026H10.937v11.088z" mask="url(#d)"/>
        <path fill="#333" d="M23.21 68.592c-.322 0-.645-.123-.892-.37L8.835 54.705a1.267 1.267 0 0 1 0-1.787 1.258 1.258 0 0 1 1.783 0l13.484 13.517a1.267 1.267 0 0 1 0 1.787c-.247.247-.57.37-.892.37" mask="url(#d)"/>
        <path fill="#333" d="M9.727 68.592c-.322 0-.645-.123-.892-.37a1.267 1.267 0 0 1 0-1.787L22.32 52.918a1.258 1.258 0 0 1 1.783 0 1.267 1.267 0 0 1 0 1.787L10.62 68.222c-.247.247-.57.37-.892.37M30.09 68.642h16.103V52.498H30.09v16.144zm2.52-2.528h11.063V55.026H32.61v11.088z" mask="url(#d)"/>
        <path fill="#333" d="M44.883 68.592c-.322 0-.646-.123-.892-.37L30.508 54.705a1.267 1.267 0 0 1 0-1.787 1.258 1.258 0 0 1 1.783 0l13.484 13.517a1.267 1.267 0 0 1 0 1.787c-.247.247-.57.37-.892.37" mask="url(#d)"/>
        <path fill="#333" d="M31.4 68.592c-.323 0-.646-.123-.892-.37a1.267 1.267 0 0 1 0-1.787L43.99 52.918a1.258 1.258 0 0 1 1.784 0 1.267 1.267 0 0 1 0 1.787L32.29 68.222c-.246.247-.57.37-.892.37M51.764 68.642h16.101V52.498H51.764v16.144zm2.52-2.528h11.061V55.026H54.284v11.088z" mask="url(#d)"/>
        <path fill="#333" d="M66.555 68.592c-.322 0-.645-.123-.891-.37L52.18 54.705a1.267 1.267 0 0 1 0-1.787 1.258 1.258 0 0 1 1.784 0l13.483 13.517a1.267 1.267 0 0 1 0 1.787c-.246.247-.57.37-.892.37" mask="url(#d)"/>
        <path fill="#333" d="M53.072 68.592c-.322 0-.645-.123-.892-.37a1.267 1.267 0 0 1 0-1.787l13.484-13.517a1.258 1.258 0 0 1 1.783 0 1.267 1.267 0 0 1 0 1.787L53.964 68.222c-.246.247-.57.37-.892.37M38.141 1C20.644 1 6.46 15.22 6.46 32.762c0 .129 7.038.171 16.428.171 18.775 0 46.936-.171 46.936-.171C69.823 15.22 55.638 1 38.141 1m0 2.807c14.987 0 27.344 11.504 28.75 26.165-7.695.043-28.978.154-44.004.154-7.333 0-11.329-.028-13.503-.058C10.744 15.36 23.12 3.808 38.14 3.808" mask="url(#d)"/>
        <path fill="#FAA31B" d="M54.721 14.258s-20.3 15.438-20.353 15.497a4.779 4.779 0 0 0 .347 6.738 4.753 4.753 0 0 0 6.721-.347c.052-.059 13.285-21.888 13.285-21.888" mask="url(#d)"/>
        <path fill="#333" d="M35.333 30.78a3.378 3.378 0 0 0 .32 4.67 3.36 3.36 0 0 0 4.668-.162c.6-.978 5.26-8.658 9.377-15.447A9179.998 9179.998 0 0 0 35.333 30.78m2.562 8.34a6.116 6.116 0 0 1-4.117-1.587 6.19 6.19 0 0 1-.45-8.718c.125-.138.143-.159 20.547-15.675a1.402 1.402 0 0 1 1.785.076c.498.452.606 1.196.257 1.772C42.62 36.923 42.602 36.944 42.484 37.075a6.155 6.155 0 0 1-4.59 2.044M35.984 12.421h2.8V6.306h-2.8zM22.658 19.479l-4.312-4.324 1.98-1.985 4.311 4.324z" mask="url(#d)"/>
    </g>
</svg>
