<svg xmlns="http://www.w3.org/2000/svg" xmlns:xlink="http://www.w3.org/1999/xlink" width="155" height="120" viewBox="0 0 155 120">
    <defs>
        <path id="a" d="M20.429 0H0v80h20.428V0z"/>
        <path id="c" d="M0 80h81.68V0H0z"/>
    </defs>
    <g fill="none" fill-rule="evenodd" transform="translate(18 20)">
        <mask id="b" fill="#fff">
            <use xlink:href="#a"/>
        </mask>
        <path fill="#333" d="M18.973 0H1.457C.652 0 0 .65 0 1.454v77.091C0 79.35.65 80 1.457 80h17.516c.804 0 1.456-.65 1.456-1.455V1.455C20.429.65 19.777 0 18.973 0zM2.913 77.09h14.604V2.91H2.913V77.09z" mask="url(#b)"/>
        <path fill="#FAA31B" d="M49.631 67.393c0 4.153-3.37 7.52-7.526 7.52-4.158 0-7.529-3.367-7.529-7.52 0-4.151 3.371-7.518 7.529-7.518 4.157 0 7.526 3.367 7.526 7.518"/>
        <path fill="#333" d="M42.105 61.33c-3.348 0-6.073 2.72-6.073 6.063 0 3.344 2.725 6.066 6.073 6.066 3.347 0 6.07-2.722 6.07-6.066s-2.723-6.064-6.07-6.064m0 15.039c-4.954 0-8.985-4.026-8.985-8.975 0-4.947 4.03-8.973 8.985-8.973 4.952 0 8.983 4.026 8.983 8.973 0 4.949-4.031 8.975-8.983 8.975"/>
        <path fill="#FAA31B" d="M49.631 12.606c0 4.151-3.37 7.519-7.526 7.519-4.158 0-7.529-3.368-7.529-7.519 0-4.153 3.371-7.518 7.529-7.518 4.157 0 7.526 3.365 7.526 7.518"/>
        <path fill="#333" d="M42.105 6.542c-3.348 0-6.073 2.72-6.073 6.064s2.725 6.064 6.073 6.064c3.347 0 6.07-2.72 6.07-6.064s-2.723-6.064-6.07-6.064m0 15.037c-4.954 0-8.985-4.026-8.985-8.973 0-4.947 4.03-8.973 8.985-8.973 4.952 0 8.983 4.026 8.983 8.973 0 4.947-4.031 8.973-8.983 8.973"/>
        <path fill="#FAA31B" d="M64.193 40c0 4.152-3.37 7.518-7.527 7.518S49.138 44.152 49.138 40c0-4.152 3.37-7.519 7.528-7.519 4.157 0 7.527 3.367 7.527 7.519"/>
        <path fill="#333" d="M56.666 33.936c-3.348 0-6.072 2.72-6.072 6.064s2.724 6.064 6.072 6.064 6.07-2.72 6.07-6.064-2.722-6.064-6.07-6.064m0 15.037c-4.954 0-8.984-4.026-8.984-8.973 0-4.947 4.03-8.973 8.984-8.973 4.952 0 8.983 4.026 8.983 8.973 0 4.947-4.03 8.973-8.983 8.973"/>
        <mask id="d" fill="#fff">
            <use xlink:href="#c"/>
        </mask>
        <path fill="#333" d="M2.37 68.848h32.786v-2.91H2.37zM1.19 14.061h33.966v-2.909H1.19zM2.37 41.455h46.055v-2.91H2.371zM68.144 52.005a1.456 1.456 0 0 1-1.038-2.474 14.03 14.03 0 0 0 4.053-9.898c0-3.823-1.505-7.402-4.235-10.08a1.454 1.454 0 1 1 2.039-2.076 16.896 16.896 0 0 1 5.108 12.156c0 4.495-1.736 8.733-4.888 11.937a1.45 1.45 0 0 1-1.039.435" mask="url(#d)"/>
        <path fill="#333" d="M73.719 57.182c-.364 0-.728-.136-1.01-.408a1.452 1.452 0 0 1-.039-2.056 21.605 21.605 0 0 0 6.097-15.084c0-5.952-2.363-11.508-6.654-15.64a1.453 1.453 0 0 1-.037-2.058 1.459 1.459 0 0 1 2.06-.037C79 26.587 81.68 32.885 81.68 39.634a24.499 24.499 0 0 1-6.913 17.102 1.458 1.458 0 0 1-1.048.446" mask="url(#d)"/>
    </g>
</svg>
