<svg xmlns="http://www.w3.org/2000/svg" width="155" height="121" viewBox="0 0 155 121">
    <g fill="#333" fill-rule="evenodd">
        <path d="M35.882 41.22c-1.584 2.117-4.414 6.027-5.789 8.708-7.959 15.537-8.494 27.401-6.535 32.843.666 1.85 1.638 3.095 2.81 3.601 5.701 2.465 18.765-2.286 29.544-25.524 7.273-15.682 4.099-31.392 2.805-36.291l-15.971 9.64.114 13.811a1.29 1.29 0 0 1-.94 1.25 1.3 1.3 0 0 1-1.46-.567l-4.578-7.471zm-6.446 48.307c-1.55 0-2.931-.283-4.096-.786-1.845-.797-3.304-2.56-4.218-5.098-2.237-6.21-1.66-18.635 6.666-34.89 2.07-4.038 6.98-10.346 7.188-10.613a1.27 1.27 0 0 1 1.095-.496c.423.025.809.254 1.03.616l3.132 5.11-.082-9.887a1.286 1.286 0 0 1 .624-1.114l18.044-10.891a1.297 1.297 0 0 1 1.893.685c.278.808 6.705 20.027-2.452 39.769-9.657 20.823-21.245 27.595-28.824 27.595z"/>
        <path d="M21.856 99.572a1.29 1.29 0 0 1-1.148-1.885l39.417-75.7a1.295 1.295 0 0 1 2.298 1.19l-39.416 75.7c-.23.442-.684.695-1.15.695"/>
        <path d="M49.964 62.68h-.03l-16.797-.387a1.29 1.29 0 0 1-1.263-1.32c.016-.712.58-1.264 1.324-1.26l16.796.387a1.293 1.293 0 0 1 1.264 1.32 1.293 1.293 0 0 1-1.294 1.26"/>
    </g>
</svg>
