<svg id="Layer_1" data-name="Layer 1" xmlns="http://www.w3.org/2000/svg" xmlns:xlink="http://www.w3.org/1999/xlink" width="600" height="400" preserveAspectRatio = "xMidYMid slice" viewBox="-50 0 750 550"><defs><style>.cls-1{fill:none;}.cls-2{fill:#999;}.cls-3,.cls-4,.cls-5{fill:#56595c;}.cls-3{opacity:0.67;}.cls-5{opacity:0.15;}.cls-6{fill:#db3742;}.cls-11,.cls-7{fill:#451717;}.cls-8{fill:#370e10;}.cls-10,.cls-13,.cls-9{fill:#fff;}.cls-10{opacity:0.08;}.cls-11{opacity:0.16;}.cls-12{clip-path:url(#clip-path);}.cls-13{opacity:0.14;}</style><clipPath id="clip-path"><path class="cls-1" d="M409.40774,279.49315c0-34.14875-36.20594-61.83163-80.86822-61.83163S247.6713,245.62423,247.6713,279.773c0,19.823,23.26761,40.97611,40.85251,51.18383,14.27817,8.28824,48.99514,18.36345,51.01064,20.15561C405.67006,319.23657,409.40774,279.49315,409.40774,279.49315Z"/></clipPath></defs><title>mashling_WM</title><path d="M48.73438,479.165v20.05371h-3.252v-57.8125H60.6582a19.12814,19.12814,0,0,1,11.2373,5.52832A18.8794,18.8794,0,0,1,58.5625,479.165Zm0-34.4707V475.877H58.5625a15.59131,15.59131,0,0,0,0-31.18262Z"/><path d="M83.53027,463.73633h3.252v6.46777a20.87533,20.87533,0,0,1,2.34863-2.78223q4.29932-4.29932,8.81641-4.5166v3.541q-3.07178.145-6.35937,3.43262a15.62506,15.62506,0,0,0-4.80566,11.02051v18.31934h-3.252Z"/><path d="M122.12012,460.52051a19.86182,19.86182,0,1,1-14.01953,5.81738A19.09182,19.09182,0,0,1,122.12012,460.52051Zm-11.59863,8.27441a16.39675,16.39675,0,0,0,23.19727,23.17969,16.39673,16.39673,0,0,0-23.19727-23.17969Z"/><path d="M146.97949,504.20508q4.37183-.50684,4.37207-4.91406V463.73633h3.252v35.48242q0,7.623-7.624,8.23828Zm8.29248-52.10352a3.07358,3.07358,0,0,1,.95752,2.27637,3.11179,3.11179,0,0,1-.95752,2.3125,3.27158,3.27158,0,0,1-4.58887,0,3.11,3.11,0,0,1-.95752-2.3125,3.07175,3.07175,0,0,1,.95752-2.27637,3.27158,3.27158,0,0,1,4.58887,0Z"/><path d="M173.82617,492.57031a15.62938,15.62938,0,0,0,10.91211,4.19141,15.8048,15.8048,0,0,0,11.59863-4.80566q.61377-.61377,1.15625-1.26465l3.43262,1.22852a20.52631,20.52631,0,0,1-2.13184,2.49316,19.82643,19.82643,0,1,1-1.73437-29.665q.86719.72363,1.73438,1.58984.3252.3252.61426.65039l-2.457,2.457Zm20.74023-25.3291a16.39534,16.39534,0,0,0-22.94434,22.94434Z"/><path d="M240.02148,490.69141l3.43262,1.22852a20.52632,20.52632,0,0,1-2.13184,2.49316,19.855,19.855,0,1,1,0-28.0752,22.26323,22.26323,0,0,1,2.13184,2.457l-3.43262,1.26465q-.542-.65039-1.15625-1.30078a16.4043,16.4043,0,1,0,0,23.19727Q239.479,491.34229,240.02148,490.69141Z"/><path d="M257.18457,463.73633V448.63281h3.252v15.10352h7.22656v3.252h-7.22656v32.23047h-3.252V466.98828H249.958v-3.252Z"/><path d="M305.63867,441.40625l21.71582,37.57813,21.67969-37.57812h3.72168l-.14453.25293v57.55957h-3.252V447.2959l-22.00488,38.084-22.041-38.084v51.92285h-3.252V441.65918l-.14453-.25293Z"/><path d="M401.89648,499.21875h-3.252v-7.22656a24.39165,24.39165,0,0,1-2.05957,2.4209,19.855,19.855,0,1,1,0-28.0752,24.61651,24.61651,0,0,1,2.05957,2.4209v-5.02246h3.252Zm-3.252-15.60937v-6.43164a16.23515,16.23515,0,1,0,0,6.43164Z"/><path d="M422.49219,480.97168a26.21382,26.21382,0,0,1-5.74512-3.83008,8.1767,8.1767,0,0,1-2.49316-5.998,8.2779,8.2779,0,0,1,2.49316-6.05176,8.14534,8.14534,0,0,1,5.998-2.51172,7.93635,7.93635,0,0,1,5.85352,2.3125,7.17969,7.17969,0,0,1,2.24023,5.167v.18066l-2.81836,1.12012a7.01693,7.01693,0,0,0-1.71582-4.11914,4.78269,4.78269,0,0,0-3.55957-1.373,5.26328,5.26328,0,0,0-3.72168,8.99707,25.27831,25.27831,0,0,0,3.83008,2.74609,30.179,30.179,0,0,1,6.57617,4.48047,10.53272,10.53272,0,1,1-14.88672,14.9043,9.447,9.447,0,0,1-3.07129-6.77441l3.21581-.83105a7.17575,7.17575,0,0,0,2.1504,5.31152,7.30069,7.30069,0,0,0,10.31543-10.334A31.42659,31.42659,0,0,0,422.49219,480.97168Z"/><path d="M441.71484,441.40625h3.252V465.5791a14.09225,14.09225,0,0,1,24.17285,9.90039v23.73926h-3.252v-23.4502a10.39338,10.39338,0,0,0-3.27051-7.71387A11.01206,11.01206,0,0,0,444.9668,470.999v28.21973h-3.252Z"/><path d="M483.23145,441.40625v57.8125h-3.252v-57.8125Z"/><path d="M498.71387,452.10156a3.0722,3.0722,0,0,1,.958,2.27637,3.11038,3.11038,0,0,1-.958,2.3125,3.27039,3.27039,0,0,1-4.58789,0,3.11038,3.11038,0,0,1-.958-2.3125,3.0722,3.0722,0,0,1,.958-2.27637,3.27039,3.27039,0,0,1,4.58789,0Zm-.668,11.63477v35.48242h-3.252V463.73633Z"/><path d="M512.86035,471.64941v27.56934h-3.252V463.73633h3.252v2.27637a14.22972,14.22972,0,0,1,10.334-4.4082,13.65847,13.65847,0,0,1,14.27246,13.875v23.73926h-3.252v-23.4502a10.39338,10.39338,0,0,0-3.27051-7.71387A11.03508,11.03508,0,0,0,515.46191,468,12.204,12.204,0,0,0,512.86035,471.64941Z"/><path d="M583.24707,492.17285a28.2415,28.2415,0,0,1-1.95117,2.24023,19.819,19.819,0,1,1,0-28.0752,24.61653,24.61653,0,0,1,2.05957,2.4209v-5.02246h3.252v27.56934a18.62026,18.62026,0,0,1-5.67285,13.6582,19.84534,19.84534,0,0,1-28.0752,0,20.483,20.483,0,0,1-2.13184-2.49316l3.43262-1.22852q.542.65039,1.15625,1.26465a16.4,16.4,0,0,0,27.93066-10.334Zm.07227-15.17578a16.21224,16.21224,0,1,0,0,6.86523Z"/><path d="M598.33984,447.13672h-3.77344v-1.9375h9.65527v1.9375h-3.77344v9.96094h-2.1084Z"/><path d="M606.43262,445.19922h2.22656l3.62012,5.626,3.62109-5.626H618.127v11.89844h-2.09082v-8.5332l-3.75684,5.60938h-.06738l-3.72266-5.5752v8.499h-2.05664Z"/><path class="cls-2" d="M275.04592,398.934c-19.02687,13.355-9.07067-31.48419-27.4646-93.49081a488.98954,488.98954,0,0,0-28.93253-75.20262,2.44236,2.44236,0,0,1,.96737-3.19834l7.357-4.25761a2.43416,2.43416,0,0,1,3.47572,1.16258c6.16948,14.81237,31.92736,73.06339,42.7304,128.13857C281.31787,393.57737,279.69324,395.672,275.04592,398.934Z"/><path class="cls-3" d="M226.97314,222.7846a2.43416,2.43416,0,0,1,3.47572,1.16258c6.16948,14.81237,31.92736,73.06339,42.7304,128.13857,8.13861,41.49163,6.514,43.58628,1.86666,46.84823-3.56753,2.504-6.11613,2.96222-8.02372,1.645,10.31585-8.91265,6.69765-11.29089-2.24354-59.32328-7.96762-42.8023-31.75585-103.397-36.84183-116.08549,0,0-6.924,4.33079-7.62231,3.10141s-.24152-1.49375-.24152-1.49375Z"/><path class="cls-4" d="M221.32759,227.03677a80.40362,80.40362,0,0,1-6.23752-13.0285l-1.07137,1.62856c-2.4363-1.18356-18.86963-.69742-29.21876,1.33688-9.45725,1.86041-14.16344-3.33191-15.43862-6.51425-1.18356-2.21567-15.59007-28.87659-26.41972-35.38149-1.85667-1.11625-7.50522-4.50986-5.70651-8.94681,2.02682-4.996,12.49561-4.76415,16.52308-3.8274,5.89349,1.3724,10.52675.89562,12.04126.08414-2.49052-1.4528-10.2332-2.73546-12.95744-3.18794-5.46157-.905-9.44229-1.75571-11.09516-4.508a5.12127,5.12127,0,0,1-.37582-4.41825c1.72579-5.10258,9.58066-4.10039,26.80116-1.90155l3.4815.44313c11.686,1.479,15.08336.15706,15.878-.31038-1.9969-1.2864-11.2971-2.90935-17.51592-3.99381-17.6412-3.07763-26.08691-4.809-25.29974-10.46505a4.71036,4.71036,0,0,1,1.95577-3.19542c4.164-3.05706,14.98987-1.52012,31.02682,1.1686,3.73017.62637,7.25093,1.21721,9.96209,1.55938,8.58033,1.08446,13.02663.60393,14.81412.10658-1.9726-1.84732-14.18027-3.54133-21.50225-4.55848-14.00451-1.94455-19.06408-2.86634-20.831-5.56628a3.63648,3.63648,0,0,1-.48053-3.01779c1.5893-5.64294,8.8795-4.594,17.3196-3.3824,2.94487.42257,5.99071.862,9.13191,1.11812,1.8548.15145,3.71148.33843,5.52514.51979,4.25745.42631,9.73024.96854,12.79851.55158-.2225-.46183-.43752-.905-.64507-1.33688a112.59611,112.59611,0,0,0-12.11605-1.76505c-8.47563-.91992-11.47659-1.34436-12.8116-3.43662a3.34393,3.34393,0,0,1-.35338-2.88317c1.83237-5.44661,8.99542-5.84861,19.17814-4.78846.82643.08788,1.61734.13836,2.369.1608a8.18565,8.18565,0,0,1,3.83675-5.45409,7.92407,7.92407,0,0,1,8.24939.44313c2.5784,1.57995,2.92244,3.83862,2.38395,5.426-.85448,2.5167-3.95641,4.08917-7.86048,4.83146.359.83391.789,1.77814,1.25461,2.77473,2.90187,1.163,4.59961,2.85513,4.38459,5.51393a6.305,6.305,0,0,1-.61515,2.28111c4.13591,8.47937,8.51676,17.7272,9.102,23.56086.52914,5.24468-.13836,19.63623-.78343,33.55473-.589,12.71251-1.19852,25.85693-.73669,29.16827.7666,5.49149,5.28955,13.88859,6.9686,16.65957Zm-78.15788-58.85634a15.4901,15.4901,0,0,0,2.72985,1.9726c12.61528,7.58,27.9735,36.54635,28.62043,37.77478l.15893.36086c.17015.41322,2.00438,4.41638,9.016,3.04958,6.44133-1.2677,22.4951-2.90935,30.1686-1.58182q-.17108-.79652-.27859-1.56312c-.53475-3.83675.03179-16.06686.68807-30.22656.6058-13.07337,1.292-27.88936.80587-32.71521-.46557-4.6314-4.41451-13.1089-8.0568-20.6029-3.84236,1.077-9.37311.52353-15.95654-.13462-1.68092-.17015-3.4011-.34217-5.11941-.48614,11.17182,1.6136,18.2096,3.00845,20.803,5.81309,2.68311,2.90748,2.10535,5.24281,1.522,6.37589-.68807,1.33875-2.78407,5.40548-21.32836,3.0608-2.82895-.35712-6.4058-.95732-10.19394-1.593-6.46376-1.08446-18.7107-3.12624-24.21528-2.77847,4.27427,1.46963,12.85461,2.96731,18.4695,3.94707,14.30928,2.49613,19.86621,3.719,21.47795,6.67879a5.56477,5.56477,0,0,1-.01683,6.08981c-1.51451,2.21567-5.39052,4.9343-21.52843,2.89252l-3.49084-.44313c-7.37995-.94236-15.56576-1.98756-19.31089-1.72392a50.611,50.611,0,0,0,5.62985,1.18356c8.71683,1.44533,15.53771,2.83456,17.60193,6.43011a4.61312,4.61312,0,0,1,.30851,4.005c-2.154,5.699-11.7047,5.68033-19.21927,3.93211A20.61718,20.61718,0,0,0,143.16971,168.18043Zm44.52462-19.5577Zm-3.74139-36.8586Zm7.55944-1.31257c.26551.02992.52727.058.78156.086,3.044.32908,5.972.64694,8.60464,1.062-.07292-.187-.1421-.37021-.20941-.54784-1.20039-.00748-2.41012-.07479-3.59929-.19819C194.88169,110.62171,193.04185,110.4983,191.51238,110.45156Z"/><path class="cls-5" d="M270.51784,401.16738c-12.91788,2.7957-6.221-39.37555-22.93652-95.72421a488.98954,488.98954,0,0,0-28.93253-75.20262,2.44236,2.44236,0,0,1,.96737-3.19834s15.1052,30.68811,24.84,59.22965S265.43852,362.00349,270.51784,401.16738Z"/><path class="cls-4" d="M342.80191,350.33153c10.21283-.00514,22.82576-2.46407,32.61094.86517,13.42321,4.567,2.68814,18.993-5.06113,23.1284-1.98508,1.05933,2.64054.79791,3.53068.32289,7.13341-3.8067,18.81885-15.73813,9.23284-23.38713-3.93817-3.1424-10.60822-4.59123-15.32482-4.75136-7.81945-.26548-14.50736.4956-22.33333.49954-1.24854.00063-5.69227,3.324-2.65518,3.32248Z"/><path class="cls-4" d="M271.95709,350.40286a115.0372,115.0372,0,0,0,46.66667,9.08333c6.22087-.03369,17.22857-.84259,22.4109-5.13383-.51827.42916-5.8826-4.85871-7.83751-3.23993-2.7746,2.29751-10.07777,3.30887-13.37141,3.753-15.67621,2.114-31.272-1.518-45.76232-7.39294-1.699-.68884-8.30351-1.01231-4.023,2.01368Z"/><path class="cls-4" d="M381.04775,383.843c2.91928,1.57819,4.90224,5.56955,6.15646,8.43661.32842.75075,2.44662,1.57653,1.8991.32494-1.59829-3.65358-4.10664-8.15732-7.77727-10.1417-1.40681-.76053-1.31965.81718-.2783,1.38015Z"/><path class="cls-4" d="M374.44314,389.25234c.823.38707,1.23346,2.11429,1.48449,2.88675a23.0196,23.0196,0,0,1,1.06349,6.80136c.01225.83823,2.25862.12317,2.24813-.59423a24.0274,24.0274,0,0,0-1.0902-7.09773c-.27658-.85118-.73566-2.68011-1.6699-3.11949-.69172-.32531-2.61868.8493-2.036,1.12334Z"/><path class="cls-4" d="M357.88517,391.04639c-1.56716,3.77951-1.56849,7.599-1.16364,11.598.22936,2.26558,4.43113,3.78408,4.13184.82773-.33407-3.29987-.4731-6.49917.82689-9.63435.86443-2.08474-2.84135-5.0915-3.79509-2.79138Z"/><path class="cls-4" d="M347.89512,388.20623a22.41423,22.41423,0,0,0-4.25172,8.29389c.03-.10393,2.232.15535,2.371-.32577a22.41,22.41,0,0,1,4.25172-8.29389c-.00326.004-1.08685.00344-1.20518.0197-.30543.042-.95057.04485-1.16584.30607Z"/><path class="cls-4" d="M384.0995,180.02765c3.13306,12.53226-.35133,33.9196-24.84072,67.36088,0,0-24.13811,31.45846-2.00232-3.41256,23.2276-36.591,18.07012-62.26564,13.82294-73.13585a2.91982,2.91982,0,0,1,4.3286-3.496A21.67744,21.67744,0,0,1,384.0995,180.02765Z"/><path class="cls-4" d="M306.67984,222.1038c.49817,1.5595-4.51175-20.23247-13.90764-34.67437a20.53845,20.53845,0,0,0-18.82756-9.03933,1.87427,1.87427,0,0,0-1.05378,3.28243c6.6442,5.75868,22.67325,20.994,31.10853,40.51056C304.82338,224.08958,306.02221,220.04514,306.67984,222.1038Z"/><path class="cls-6" d="M409.40774,279.49315c0-34.14875-36.20594-61.83163-80.86822-61.83163S247.6713,245.62423,247.6713,279.773c0,19.823,23.26761,40.97611,40.85251,51.18383,14.27817,8.28824,48.99514,18.36345,51.01064,20.15561C405.67006,319.23657,409.40774,279.49315,409.40774,279.49315Z"/><circle class="cls-7" cx="364.83752" cy="258.26111" r="10.73273"/><path class="cls-8" d="M364.83737,269.95153a11.69068,11.69068,0,1,1,11.68975-11.68975A11.70386,11.70386,0,0,1,364.83737,269.95153Zm0-21.46673a9.776,9.776,0,1,0,9.77511,9.777A9.78713,9.78713,0,0,0,364.83737,248.4848Z"/><circle class="cls-9" cx="368.2797" cy="254.52074" r="3.44218"/><path class="cls-10" d="M331.8214,378.73388c-6.17646-12.91531-.7621-26.511,5.95714-28.16877a3.80191,3.80191,0,0,1,4.44745,3.40383C343.009,358.08,330.81347,361.99688,331.8214,378.73388Z"/><circle class="cls-7" cx="282.77665" cy="251.77624" r="8.81431"/><path class="cls-8" d="M282.77729,261.547a9.77137,9.77137,0,1,1,9.77137-9.77137A9.78154,9.78154,0,0,1,282.77729,261.547Zm0-17.62811a7.85674,7.85674,0,1,0,7.85674,7.85674A7.86561,7.86561,0,0,0,282.77729,243.91885Z"/><circle class="cls-9" cx="285.60356" cy="248.70444" r="2.82691"/><path class="cls-8" d="M337.40423,306.83818a36.75479,36.75479,0,0,1-6.72179-.62076.95643.95643,0,1,1,.34778-1.881c19.668,3.62921,34.56066-10.44636,37.47562-15.7116a.95743.95743,0,1,1,1.67531.9274C367.43821,294.50523,354.72383,306.83818,337.40423,306.83818Z"/><path class="cls-6" d="M366.99914,392.77855c-12.13666,2.05642-22.09727-6.04336-23.44147-11.49173s-3.83283-4.89588,8.11846-7.84445,24.80869,2.91867,34.59176,3.34483C386.26788,376.7872,384.22469,389.85988,366.99914,392.77855Z"/><path class="cls-6" d="M337.02,347.40667c7.06444-4.07865,18.30695-4.08019,24.00127,5.78267s3.68413,25.85524-3.38031,29.93389-17.40745-.61037-23.10178-10.47322S329.95559,351.48532,337.02,347.40667Z"/><path class="cls-11" d="M363.68051,372.90294c1.33379-6.30506.62541-14.02446-2.65935-19.71361a15.90232,15.90232,0,0,0-10.2716-7.87372c3.34134,2.49941,5.07308,8.11707,5.3742,13.17831.54408,9.145-2.9717,16.15031-9.2302,17.18967-6.25871,1.03925-12.54909-5.44433-14.0499-14.48179a21.42991,21.42991,0,0,1,.85133-10.814c-3.91586,5.26486-3.78791,14.23908.84415,22.26221a25.9839,25.9839,0,0,0,9.3357,9.584c2.16612,5.38479,11.67221,12.48491,23.12421,10.5445,17.2255-2.91863,19.26894-15.99136,19.26894-15.99136C379.71874,376.50188,371.79073,373.78784,363.68051,372.90294Z"/><g class="cls-12"><path class="cls-11" d="M356.495,218.90286s22.81438,8.01282,32.68808,18.37289c13.25574,13.90869,33.7144,36.545,8.48072,73.41056-21.295,31.11128-61.225,42.32811-61.225,42.32811s-39.97354-15.37837-56.73734-28.142c0,0,54.02879,20.257,80.4494.2528C404.56771,291.49542,412.2773,241.63731,356.495,218.90286Z"/><path class="cls-13" d="M273.96234,320.82544c-8.01443-4.90935-41.78284-22.82365-28.73146-51.8316,28.83609-64.091,88.55954-59.42432,115.35059-46.28452-13.72265-.89352-56.4189-9.08468-86.61913,20.2526C255.65977,260.74151,249.67141,295.743,273.96234,320.82544Z"/></g><path class="cls-6" d="M413.26895,383.44526v10.8491h-1.65128v-10.8491h-4.35772v-1.59453h10.37154v1.59453Z"/><path class="cls-6" d="M430.33049,383.94206l-3.78037,10.17243h-1.69384l-3.80177-10.19143-.13971,10.3713h-1.651l.41625-12.44363h2.2522l3.82052,10.234,3.80177-10.234h2.20966l.39964,12.44363h-1.71258Z"/></svg>