<svg xmlns="http://www.w3.org/2000/svg" viewBox="0 0 338.22116 433.01955"><defs><style>.cls-1{fill:#d8d8d8;}.cls-1,.cls-5{opacity:0.5;}.cls-2,.cls-8{fill:#fff;}.cls-2{opacity:0.19;}.cls-3,.cls-5{fill:#56595c;}.cls-4{fill:#db3742;}.cls-6{fill:#451717;}.cls-7{fill:#370e10;}</style></defs><title>example</title><g id="Layer_1" data-name="Layer 1"><circle class="cls-1" cx="169.11058" cy="216.50977" r="157.5"/><path class="cls-2" d="M195.66217,183.941s60.52739,33.04682,122.78578,2.16928c0,0-29.57659,87.19752-174.38662,84.05395S.526,192.78074,47.11283,170.04788,154.76995,172.45054,195.66217,183.941Z"/><path class="cls-3" d="M111.1681,247.30923a31.92658,31.92658,0,0,1,17.0144-20.29338c.244-.113-.779-1.48323-1.27659-1.25267a32.09454,32.09454,0,0,0-17.08213,20.45362c-.125.44494,1.22707,1.50989,1.34432,1.09243Z"/><path class="cls-3" d="M128.357,247.8785c-1.0224-2.11556-.2488-5.99347.10486-8.17714.67592-4.17343,2.29815-8.4713,6.3564-10.37411.22755-.10669-1.07693-1.0456-1.51146-.84186-4.09964,1.92222-5.78507,6.23385-6.47155,10.47231-.34708,2.143-1.12215,6.2213-.1038,8.32847.216.44688,1.70084.74813,1.62554.59233Z"/><path class="cls-3" d="M175.68822,232.51007c3.03339,4.91007,10.31592,6.071,15.49514,6.09789.84453.00438,1.65351-1.47152.549-1.47725-4.79135-.02485-11.71033-1.00772-14.54383-5.59422-.46436-.75165-1.96818.21629-1.50034.97357Z"/><path class="cls-3" d="M185.21153,227.172c5.13846,1.33384,10.9142,1.75054,15.98485-.00057.5229-.18058-.25247-1.7764-.86779-1.5639-4.87077,1.68209-10.53907,1.28187-15.47952-.00057-.77768-.20187-.17948,1.42437.36246,1.565Z"/><path class="cls-3" d="M90.71393,178.24874c-1.04755.437,14.81442-7.59588,26.66267-9.11639,5.12717-.658,12.12148,1.45956,15.0668,5.60373a1.29946,1.29946,0,0,1-1.26095,2.03049c-6.02547-.92449-14.535-4.34988-41.02967,3.4858C88.77193,180.66076,92.09677,177.67184,90.71393,178.24874Z"/><path class="cls-3" d="M115.68753,142.04024c-8.95614-.04146-22.783,5.83463-41.26029,27.84459,0,0-17.2,21.44616,2.62843.78513,20.80645-21.68011,38.94663-22.44444,46.96744-21.37844a2.02436,2.02436,0,0,0,1.63975-3.4918A15.02933,15.02933,0,0,0,115.68753,142.04024Z"/><path class="cls-4" d="M130.19325,221.24611c-3.87178-2.20589-17.364-50.5353-61.49678-46.33506S13.72466,222.00261,43.48234,237.354,122.8241,236.14532,130.19325,221.24611Z"/><path class="cls-4" d="M122.4246,223.19984s16.45453,28.33474,42.92486,7.72864c0,0,14.1287,12.95394,29.51084-12.826,0,0-10.37351,1.69911-19.31619.44713-5.81678-.81435-10.91962,1.73782-11.26778,8.92471C164.27635,227.47435,142.81391,201.022,122.4246,223.19984Z"/><path class="cls-5" d="M194.74664,161.24117c20.83674,15.5061,50.48107,20.27526,75.63743,20.6197,1.11092.01521.4117-1.50594-.45279-1.51778-24.66637-.33774-53.92741-4.96382-74.38491-20.1877-.89429-.66551-1.6956.4191-.79973,1.08578Z"/><path class="cls-5" d="M181.2963,185.87456A284.49439,284.49439,0,0,0,235.435,196.54534c27.64,2.875,60.08478,2.94845,83.43278-14.35359.67183-.49786-.19608-2.0561-.83958-1.57923-24.01247,17.79445-57.761,17.20922-86.07594,13.91308a285.03952,285.03952,0,0,1-50.83288-10.306c-.92094-.284-.55138,1.43032.177,1.655Z"/><path class="cls-5" d="M229.379,219.52335c20.31029-2.60529,41.42553-6.06809,60.52125-13.642.91809-.36414.07358-1.93956-.85276-1.57215-18.95212,7.517-39.9765,10.9194-60.13508,13.50523-1.02745.1318-.4965,1.83247.46659,1.70893Z"/><path class="cls-5" d="M207.55644,247.89162c19.19107-3.67226,39.78767-8.46464,56.90369-18.11986.51965-.29313-1.09582-.75281-1.48238-.53475-17.07807,9.63381-37.46584,14.373-56.60872,18.036-.86089.16473.78409.69574,1.18741.61856Z"/><path class="cls-5" d="M97.40382,271.95391c20.87329,1.95281,42.24277,1.25075,63.08412-.56828,36.37351-3.17468,73.651-11.0493,105.89788-28.78142,20.32185-11.17471,37.97358-26.61745,50.10418-46.51108-.1734.28437-1.43829.08987-1.70769.53166-39.28684,64.42862-127.6366,77.06677-196.83755,75.67925-6.30069-.12633-12.631-.3231-18.90909-.91045-.50484-.04723-1.36513.58527-1.63185.56032Z"/><path class="cls-5" d="M95.77819,280.23655c35.36274,9.53948,74.97611,14.91155,111.26849,8.62249,1.082-.18751.83521-1.27162-.23746-1.08574-35.80046,6.20381-75.05311.84274-109.96346-8.5747-.668-.1802-2.08084.7646-1.06757,1.03795Z"/><circle class="cls-6" cx="91.81742" cy="196.988" r="6.06486" transform="translate(-25.12143 13.79407) rotate(-7.56092)"/><path class="cls-7" d="M92.68656,203.53661a6.60618,6.60618,0,1,1,5.679-7.41739A6.61363,6.61363,0,0,1,92.68656,203.53661Zm-1.59613-12.025a5.52426,5.52426,0,1,0,6.20265,4.74994A5.53052,5.53052,0,0,0,91.09043,191.51165Z"/><circle class="cls-8" cx="89.34461" cy="195.6675" r="1.94511" transform="translate(-24.96918 13.45722) rotate(-7.56092)"/><circle class="cls-6" cx="43.19446" cy="197.62221" r="6.06486" transform="translate(-25.62763 7.40176) rotate(-7.56092)"/><path class="cls-7" d="M44.0636,204.17082a6.60618,6.60618,0,1,1,5.679-7.41739A6.61363,6.61363,0,0,1,44.0636,204.17082Zm-1.59613-12.025a5.52426,5.52426,0,1,0,6.20265,4.74994A5.53052,5.53052,0,0,0,42.46747,192.14585Z"/><circle class="cls-8" cx="40.72166" cy="196.30171" r="1.94511" transform="translate(-25.47538 7.06491) rotate(-7.56092)"/></g></svg>