<svg xmlns="http://www.w3.org/2000/svg" xmlns:xlink="http://www.w3.org/1999/xlink" viewBox="0 0 532.78361 433.01955"><defs><style>.cls-1{fill:none;}.cls-2{fill:#56595c;}.cls-3{fill:#db3742;}.cls-4,.cls-7{fill:#451717;}.cls-4{opacity:0.16;}.cls-5{clip-path:url(#clip-path);}.cls-6,.cls-9{fill:#fff;}.cls-6{opacity:0.14;}.cls-8{fill:#370e10;}.cls-10{fill:#3fbfbb;}.cls-11{fill:#ceece9;}.cls-12{fill:#99d9d5;}.cls-13{fill:#bde6e3;}.cls-14{fill:#ebded2;}.cls-15{fill:#fbeb34;}.cls-16{fill:#ffcf2b;}.cls-17{fill:#fbb475;}.cls-18{fill:#dbd9d6;}.cls-19{fill:#2e2a25;}.cls-20{fill:#7b2e00;}.cls-21{fill:#f7323f;}.cls-22{fill:#b3b3b3;}</style><clipPath id="clip-path"><path class="cls-1" d="M275.94844,202.22689c-1.69935-15.37756-19.38088-26.04175-39.49281-23.81921s-35.02435,16.61619-33.325,31.99375c.98646,8.92651,12.51677,17.29413,20.94341,21.0157,6.84207,3.02176,22.97688,5.83111,23.97367,6.53784C276.24308,220.3098,275.94844,202.22689,275.94844,202.22689Z"/></clipPath></defs><title>Mashlings</title><g id="Layer_1" data-name="Layer 1"><path class="cls-2" d="M227.95253,239.64369c5.79643,2.35849,13.75383-.53307,19.10514-2.60686.6379-.2472-.49434-.62756-.84937-.49-4.78664,1.855-12.33884,4.76307-17.58759,2.62743-.41451-.16866-1.4212.163-.66818.46941Z"/><path class="cls-2" d="M248.09755,179.09547c-.64024.46992,8.82083-7.60807,16.62662-10.59588,3.37785-1.29293,8.483-1.00648,11.16919,1.32574a.90922.90922,0,0,1-.52257,1.58863c-4.24964.365-10.60084-.56084-27.3244,9.13647C247.1748,181.05584,248.94272,178.47514,248.09755,179.09547Z"/><path class="cls-2" d="M251.84761,156.03963c-5.91544,2.06823-13.65811,9.17819-20.69222,28.015,0,0-6.32382,18.16621,1.91691-.09728,8.64719-19.16432,20.43011-23.91277,25.96851-25.08656a1.41642,1.41642,0,0,0,.26425-2.68618A10.51586,10.51586,0,0,0,251.84761,156.03963Z"/><path class="cls-3" d="M259.354,246.95559s3.32944-7.05007,16.729-2.65189C273.08729,255.52275,257.49736,257.00836,259.354,246.95559Z"/><path class="cls-3" d="M260.42529,251.9788s-6.08463-.6914-9.91505-4.02115-6.76853-9.06565-1.66446-14.14522S267.76913,239.7107,260.42529,251.9788Z"/><path class="cls-4" d="M276.083,244.30369c-6.87331-2.25606-11.09225-1.49851-13.57605-.22673a13.06355,13.06355,0,0,0-6.82257-10.56625,13.59331,13.59331,0,0,1,.8232,1.34584c2.44523,4.62013,1.83269,9.73881-1.3682,11.43289-2.27309,1.20305-5.23713.348-7.6419-1.899a14.716,14.716,0,0,0,3.01272,3.56717c3.64349,3.16724,9.32235,3.94681,9.86847,4.01543C263.81726,255.86259,273.75438,253.02459,276.083,244.30369Z"/><path class="cls-3" d="M275.44718,199.80615c-2.73061-15.2283-21.08987-24.6781-41.00657-21.10681s-33.82643,18.93609-31.09582,34.16439c1.58509,8.83986,13.6525,16.41236,22.31054,19.55827,7.03,2.55435,23.31728,4.27124,24.35938,4.90928C276.95836,217.82821,275.44718,199.80615,275.44718,199.80615Z"/><g class="cls-5"><path class="cls-4" d="M249.10608,177.57551s10.67231,2.47295,15.63411,6.64686c6.66135,5.60359,17.00057,14.77888,7.47211,32.63557-8.04118,15.06947-25.4639,22.10757-25.4639,22.10757s-18.76581-4.93584-26.94989-9.8492c0,0,25.33782,6.4333,36.23985-3.88958C274.3662,207.8725,275.35681,185.03718,249.10608,177.57551Z"/><path class="cls-6" d="M217.01269,227.57949c-3.85329-1.81191-19.95106-8.1985-15.51741-21.91058,9.79584-30.29586,36.92221-31.16644,49.64039-26.58265-6.22393.28052-25.85815-1.28335-37.99773,13.43042A25.03833,25.03833,0,0,0,217.01269,227.57949Z"/></g><circle class="cls-7" cx="252.29126" cy="201.39415" r="5.20651" transform="translate(23.73233 429.36631) rotate(-83.52534)"/><path class="cls-8" d="M251.65169,207.02907a5.67122,5.67122,0,1,1,6.27405-4.99514A5.67761,5.67761,0,0,1,251.65169,207.02907Zm1.17428-10.34722a4.74242,4.74242,0,1,0,4.1769,5.24734A4.7478,4.7478,0,0,0,252.826,196.68185Z"/><circle class="cls-9" cx="250.50673" cy="199.77955" r="1.66982" transform="translate(23.75334 426.16062) rotate(-83.52534)"/><circle class="cls-7" cx="216.35892" cy="199.39037" r="4.27588" transform="translate(-6.15713 391.88532) rotate(-83.52534)"/><path class="cls-8" d="M215.82475,204.1a4.74015,4.74015,0,1,1,5.24443-4.1754A4.74508,4.74508,0,0,1,215.82475,204.1Zm.9643-8.497a3.81135,3.81135,0,1,0,3.35726,4.21682A3.81566,3.81566,0,0,0,216.789,195.603Z"/><circle class="cls-9" cx="215.14325" cy="198.06408" r="1.37135" transform="translate(-5.91789 389.50067) rotate(-83.52534)"/><path class="cls-8" d="M240.9945,221.26073a17.83,17.83,0,0,1-3.206-.66691.464.464,0,1,1,.27053-.88763c9.28169,2.82521,17.23009-3.14472,18.92316-5.52318a.46446.46446,0,1,1,.75679.53866C256.14588,216.959,249.34276,222.20816,240.9945,221.26073Z"/><path class="cls-10" d="M320.75177,299.40458c-.42137-.05164-41.73922-.99851-41.73922-.99851s-3.28943.66617-.40114,3.97128a19.61416,19.61416,0,0,0,5.48628,3.99415c-2.16127-.52987-4.24065-1.04621-6.066-1.5103a28.87436,28.87436,0,0,0,5.66316,4.63091c.67841.49236,15.7538,4.91438,19.58359,5.88116s6.36019-.6898,6.97563-1.53787-.35566-1.2939-.67164-1.39368-5.48925-1.17262-5.48925-1.17262-.57424-.06093-7.3432-1.76844c5.26571.57432,11.56551,1.167,14.345,1.34286,5.05055.31951,7.90837-1.19288,8.48465-2.40538s-.75143-1.54628-1.17286-1.5979-2.0434-.15715-2.0434-.15715-3.18616-.1766-22.865-2.30119c23.45789,1.93373,30.47437-.80831,30.36879-3.08805S321.17314,299.45622,320.75177,299.40458Z"/><path class="cls-11" d="M248.25594,271.05014s30.69986-34.78341,46.08644-64.45846c25.09631-48.40155,28.66577-75.99059,31.19859-75.74282,2.70274.42126,7.6691,3.50191,8.8934,15.91213s-4.65609,34.63738-16.50117,56.10029C312.18987,213.268,292.33223,243.30266,248.25594,271.05014Z"/><path class="cls-10" d="M245.62421,270.40953s47.74551-32.675,96.2431-84.00424c27.87986-29.50768,53.83594-60.75695,56.46951-63.22826s14.35-15.64261,14.5074,3.71365c.46243,56.88458-66.89618,104.42852-94.16359,118.26975A291.74269,291.74269,0,0,1,245.62421,270.40953Z"/><path class="cls-12" d="M245.70756,268.756s34.20493-1.51776,94.80676-31.96694c34.83824-17.50435,61.35713-35.86428,74.89948-43.4595,3.9066-2.191,18.08-9.41847,11.90449,8.03479-18.14876,51.292-94.43477,69.16485-123.60583,72.78247C263.601,279.12118,245.70756,268.756,245.70756,268.756Z"/><path class="cls-13" d="M260.40118,273.80188s27.59721,4.23258,52.29578.11363c32.52585-5.4243,91.74631-23.52575,95.73924-17.2887,2.38311,3.72246-4.32651,15.58689-23.97154,23.183C339.51546,297.1904,268.65723,285.642,260.40118,273.80188Z"/><path class="cls-14" d="M253.04712,307.62865c-3.53313-1.39908-25.02317-32.76212-31.04792-40.25759L147.004,285.048c35.0331-7.93871,41.48051,10.82674,72.086,31.12606l.06829-.0215c14.205,10.79605,28.64807,11.06787,44.53073,6.06759,11.29036-3.5545,16.24209-7.78388,23.37718-16.24333C279.98644,307.15758,261.74161,311.07177,253.04712,307.62865Z"/><path class="cls-15" d="M278.4541,277.43124a53.69823,53.69823,0,0,0-11.17743-6.00671,48.342,48.342,0,0,0-6.998-2.169,23.7604,23.7604,0,0,1-6.16445-8.09836,45.0255,45.0255,0,0,0-14.27575-16.96683,49.95092,49.95092,0,0,0-45.52194-8.06952c-18.97822,5.97485-26.47693,21.88056-29.108,40.34562a28.81859,28.81859,0,0,1,3.16561-.06745,203.32814,203.32814,0,0,1,56.53312,6.12635C223.847,292.581,235.28883,304.918,250.94008,311.11588c8.69461,3.44338,19.78237,2.63874,26.69337.7011,10.09935-2.83165,16.991-9.82758,17.36818-14.186C291.9328,289.8791,288.99338,284.87169,278.4541,277.43124Z"/><path class="cls-16" d="M229.81922,238.09408a49.81007,49.81007,0,0,0-29.91361-3.51148c5.40434-5.3288,10.57588-10.43472,10.67487-10.55588.20857-.2551,1.90657-1.33114.7127-2.86354s-6.64494.38439-18.76773,13.98364c9.89367-11.734,11.58758-13.52547,11.58758-13.52547s.85372-.92207,1.06222-1.17715c.20848-.25537.77137-1.17027-.21906-1.65251-.99034-.482-3.42807.04235-6.09132,2.90769-1.46575,1.57685-4.68107,5.27667-7.32528,8.42018,2.86629-4.669,3.15562-5.01064,3.15562-5.01064s2.31821-3.41769,2.4409-3.6487.42359-1.031-.38844-1.25631c-.81218-.22558-3.14509.03322-4.76635,2.67527s-8.22135,16.09779-8.3731,17.90156c-10.82081,4.44927-24.80971,21.11486-18.39971,35.6857,2.85988-.19307.782-.00295,3.63252-.07945,0,0,12.5981.1875,15.62244.62724l7.827.59254a34.572,34.572,0,0,1-3.44176-7.813c-1.11714-3.91068.7982-20.23978,14.90438-27.649a50.43993,50.43993,0,0,1,5.3935-2.05654A49.82051,49.82051,0,0,1,229.81922,238.09408Z"/><path class="cls-16" d="M256.71907,267.83278a45.02269,45.02269,0,0,1,.24911,25.358,45.48176,45.48176,0,0,1-8.75315,16.65479q1.46919.70132,2.92644,1.427a49.9536,49.9536,0,0,0,5.89766-42.46629C256.93626,268.47952,256.82791,268.156,256.71907,267.83278Z"/><path class="cls-1" d="M240.22918,304.392c-.20882-.08017-.41848-.15905-.6277-.23865.14434.08955.288.18022.43506.266C240.10144,304.40859,240.16445,304.40218,240.22918,304.392Z"/><path class="cls-17" d="M206.54554,280.50747s3.62924-12.6954,9.07084-16.0402,8.92073-4.19847,13.34357-1.31864,6.86675,9.252,7.33631,13.11174c-4.06656.26936-7.43241-.185-11.18221.79161s-16.50065,5.45747-16.50065,5.45747Z"/><path class="cls-9" d="M171.01476,274.15691a9.65755,9.65755,0,1,1-3.95428-13.07262,9.6575,9.6575,0,0,1,3.95428,13.07262"/><path class="cls-18" d="M155.41169,263.03618a9.63086,9.63086,0,0,1,3.54038-2.4204,8.54034,8.54034,0,0,0-4.52082,9.27615c1.14728,6.61018,8.83167,9.3806,11.1601,8.85547a9.661,9.661,0,0,1-10.17966-15.71121"/><path class="cls-19" d="M163.20564,266.25716a4.94179,4.94179,0,1,1-6.906-1.07211,4.94176,4.94176,0,0,1,6.906,1.07211"/><path class="cls-9" d="M161.9934,266.685a1.65767,1.65767,0,1,1-2.31656-.35963,1.65766,1.65766,0,0,1,2.31656.35963"/><path class="cls-20" d="M218.60134,290.96448l-19.71187-6.432-58.55679,2.0559a.90714.90714,0,0,0-.47165,1.66118h0c22.46687-2.49445,36.30273,1.51024,52.68893,8.1411C198.13118,299.37763,210.79547,298.91685,218.60134,290.96448Z"/><path class="cls-21" d="M224.72047,278.79473c-1.78093-4.03616-3.2126,2.45305-18.75961-.09505-.72953-.1346-2.24229-.39409-2.25773-.397-.011-.00208-20.86682-2.36678-36.85284-1.93758q-4.00955.10764-8.03286.379A200.95049,200.95049,0,0,0,46.84389,320.40861a201.01732,201.01732,0,0,1,111.76692-32.1858q4.40591.06434,8.78623.32033c10.1099.59674,19.31888,1.09745,32.20959,4.932a47.94629,47.94629,0,0,0,8.7739,1.80664A13.53043,13.53043,0,0,0,217.233,292.176C222.05885,288.02575,226.58458,283.01942,224.72047,278.79473Z"/><path class="cls-9" d="M216.45278,275.18416a15.62487,15.62487,0,1,1-6.6355-21.07666,15.62478,15.62478,0,0,1,6.6355,21.07666"/><path class="cls-18" d="M186.98726,268.7434a15.58169,15.58169,0,0,1,1.20436-6.83327,13.81735,13.81735,0,0,0,5.6177,15.72173c8.94456,6.14929,20.841.39318,22.86709-2.89439a15.63046,15.63046,0,0,1-29.68915-5.99408"/><path class="cls-20" d="M215.761,285.936c-3.53594,3.60746-11.804,5.15949-16.48541,5.934-3.04661.504-8.753-.73117-12.23726-1.37412.13733.343,9.95551,4.03674,10.50392,4.24628,1.37724.52622,4.39469.5245,7.29419-.35458,3.72834-1.13006,7.33349-2.45986,14.14257-9.4647C220.05973,283.845,219.1683,282.65259,215.761,285.936Z"/><path class="cls-19" d="M205.11155,262.47764a8.19019,8.19019,0,1,1-11.44559-1.77685,8.19013,8.19013,0,0,1,11.44559,1.77685"/><path class="cls-9" d="M203.10247,263.18679a2.74732,2.74732,0,1,1-3.83931-.596,2.7473,2.7473,0,0,1,3.83931.596"/><path class="cls-2" d="M245.47954,250.85472c4.92937-4.132,10.306-10.03112,11.14822-16.64569.092-.7222-1.1429-.82581-1.22863-.15256-.8196,6.43668-6.06812,12.11239-10.87866,16.14475-.60278.50527.442,1.08691.95906.6535Z"/><path class="cls-22" d="M429.91318,147.24424h34.33318c1.27718,0,4.29433-1.913,1.64105-1.913H431.55423c-1.27576,0-4.29433,1.913-1.64105,1.913"/><path class="cls-22" d="M432.41607,160.69516q11.32995.34407,22.6599.68532c.90225.02745,4.53741-1.63837,2.56124-1.69746l-22.6599-.68666c-.90234-.02607-4.53615,1.63975-2.56124,1.69881"/><path class="cls-22" d="M433.34519,172.98607a45.75939,45.75939,0,0,0,14.939.3145c2.09427-.29664,3.14212-3.05013.42162-2.66288a42.46647,42.46647,0,0,1-13.92422-.32133c-1.81414-.33784-4.08562,2.17671-1.43644,2.66971"/><path class="cls-22" d="M275.34584,156.46458h18.59788c.69184,0,2.32619-1.03626.88894-1.03626H276.23478c-.69106,0-2.32619,1.03626-.88894,1.03626"/><path class="cls-22" d="M280.8216,163.75079q6.1373.18638,12.2746.37123c.48874.01487,2.45786-.88749,1.38739-.9195l-12.2746-.372c-.48878-.01412-2.45718.88824-1.38739.92022"/><path class="cls-22" d="M285.44488,170.40863a24.78733,24.78733,0,0,0,8.0923.17036c1.13444-.16069,1.70205-1.65222.22839-1.44245a23.00359,23.00359,0,0,1-7.54258-.17406c-.9827-.183-2.21313,1.1791-.77811,1.44615"/></g></svg>